<?xml version="1.0" encoding="UTF-8"?>
<svg id="Layer_2" data-name="Layer 2" xmlns="http://www.w3.org/2000/svg" viewBox="0 0 285.82 1361.93">
  <defs>
    <style>
      .cls-1 {
        stroke-width: .39px;
      }

      .cls-1, .cls-2, .cls-3, .cls-4, .cls-5, .cls-6, .cls-7, .cls-8, .cls-9, .cls-10, .cls-11, .cls-12, .cls-13, .cls-14, .cls-15, .cls-16, .cls-17, .cls-18, .cls-19, .cls-20, .cls-21, .cls-22, .cls-23 {
        fill: none;
        stroke: #d18c8d;
        stroke-miterlimit: 10;
      }

      .cls-2 {
        stroke-width: .52px;
      }

      .cls-3 {
        stroke-width: 3.91px;
      }

      .cls-4 {
        stroke-width: 1.73px;
      }

      .cls-5 {
        stroke-width: 3.18px;
      }

      .cls-6 {
        stroke-width: .66px;
      }

      .cls-7 {
        stroke-width: .32px;
      }

      .cls-8 {
        stroke-width: 5px;
      }

      .cls-9 {
        stroke-width: 1.36px;
      }

      .cls-10 {
        stroke-width: .73px;
      }

      .cls-11 {
        stroke-width: .8px;
      }

      .cls-12 {
        stroke-width: .59px;
      }

      .cls-14 {
        stroke-width: .86px;
      }

      .cls-15 {
        stroke-width: 4.27px;
      }

      .cls-16 {
        stroke-width: .45px;
      }

      .cls-17 {
        stroke-width: 3.55px;
      }

      .cls-18 {
        stroke-width: 2.09px;
      }

      .cls-19 {
        stroke-width: 2.45px;
      }

      .cls-20 {
        stroke-width: .93px;
      }

      .cls-21 {
        stroke-width: 4.64px;
      }

      .cls-22 {
        stroke-width: .25px;
      }

      .cls-23 {
        stroke-width: 2.82px;
      }
    </style>
  </defs>
  <path class="cls-8" d="m63.5.56c9.47,40.87,20.91,105.71,18.5,185.5-2.39,79.11-16.63,114.92-21,192-5.39,95.17,10,152.07,18,212,42.13,315.8-151.56,488.51-43,721,10.48,22.44,21.05,39.6,27.5,49.5"/>
  <path class="cls-21" d="m66.77.56c7.94,42.4,18.59,105.53,16.77,180.95-1.6,76.37-13.68,110.5-17.36,184.64-4.51,92.12,8.44,148.01,15.18,204.27,35.91,299.89-128.27,474.53-37.09,712.55,10.52,27.45,18.9,54.62,22.5,77.59"/>
  <path class="cls-15" d="m70.05.56c6.4,43.92,16.05,105.34,15.05,176.41-1.04,73.63-10.72,106.07-13.73,177.27-3.63,89.07,6.87,143.95,12.36,196.55,29.65,284-108.3,462.55-31.18,704.09,10.42,32.63,16.75,69.65,17.5,105.68"/>
  <path class="cls-3" d="m73.32.56c4.86,45.44,13.64,105.16,13.32,171.86-.34,70.89-7.76,101.65-10.09,169.91-2.75,86.03,5.29,139.9,9.55,188.82,23.34,268.14-90.58,451.62-25.27,695.64,10.15,37.92,14.6,84.67,12.5,133.77"/>
  <path class="cls-17" d="m76.59.56c3.33,46.97,11.26,104.98,11.59,167.32.37,68.15-4.81,97.23-6.45,162.55-1.87,82.98,3.69,135.85,6.73,181.09,16.95,252.31-74.42,441.23-19.36,687.18,9.69,43.28,12.45,99.7,7.5,161.86"/>
  <path class="cls-5" d="m79.87.56c1.79,48.49,8.89,104.8,9.86,162.77,1.09,65.41-1.85,92.81-2.82,155.18-.99,79.93,2.07,131.81,3.91,173.36,10.48,236.51-59.38,431.09-13.45,678.73,9.03,48.68,10.3,114.72,2.5,189.95"/>
  <path class="cls-23" d="m83.14.56c.25,50.01,6.56,104.62,8.14,158.23,1.85,62.68,1.11,88.39.82,147.82-.11,76.89.42,127.77,1.09,165.64,3.9,220.74-45.17,421.02-7.55,670.27,8.17,54.1,8.15,129.75-2.5,218.05"/>
  <path class="cls-19" d="m86.41.56c-1.28,51.54,4.25,104.44,6.41,153.68,2.63,59.95,4.06,83.96,4.45,140.45.77,73.84-1.25,123.74-1.73,157.91-2.85,204.99-31.56,410.92-1.64,661.82,7.1,59.54,6,144.77-7.5,246.14"/>
  <path class="cls-18" d="m89.68.56c-2.82,53.06,1.97,104.26,4.68,149.14,3.45,57.21,7.02,79.54,8.09,133.09,1.65,70.8-2.97,119.71-4.55,150.18-9.81,189.25-18.43,400.71,4.27,653.36,5.84,64.97,3.85,159.8-12.5,274.23"/>
  <path class="cls-4" d="m92.96.56c-4.36,54.58-.26,104.08,2.95,144.59,4.33,54.47,9.98,75.12,11.73,125.73,2.53,67.75-4.73,115.68-7.36,142.45-17.08,173.5-5.65,390.36,10.18,644.91,4.38,70.39,1.7,174.82-17.5,302.32"/>
  <path class="cls-9" d="m96.23.56c-5.9,56.11-2.46,103.89,1.23,140.05,5.27,51.72,12.94,70.7,15.36,118.36,3.41,64.7-6.55,111.63-10.18,134.73-24.79,157.65,6.84,379.84,16.09,636.45,2.73,75.78-.45,189.85-22.5,330.41"/>
  <path class="cls-13" d="m99.5.56c-7.43,57.63-4.6,103.68-.5,135.5,6.31,48.95,15.89,66.27,19,111,4.28,61.66-8.45,107.55-13,127-33.13,141.57,19.12,369.12,22,628,.9,81.15-2.6,204.87-27.5,358.5"/>
  <path class="cls-20" d="m115.55.56c-7.29,55.48-5.6,101.53-1.97,135.41,3.81,35.56,9.91,55.23,13.77,81.36,1.32,8.94,2.41,18.57,3.13,29.77,3.92,60.61-7.15,106-11.12,127.06-6.97,37.03-9.41,78.86-8.51,125.79,3.27,141.52,26.94,305.66,28.49,502.08.21,25.45.07,54.87-.9,87.96-2.08,77.14-7.82,168.96-22.9,270.57"/>
  <path class="cls-14" d="m131.59.56c-7.14,53.32-6.55,99.37-3.43,135.32,3,34.58,8.58,55.03,12.01,81.47,1.17,9.08,2.14,18.74,2.8,29.78,3.55,59.55-5.9,104.42-9.23,127.12-5.5,37.47-7.56,78.93-6.11,125.75,4.57,147.79,23.12,301.23,24.07,501.99.14,25.59,0,54.98-.84,87.94-1.75,81.02-6.24,173.1-19.26,270.62"/>
  <path class="cls-11" d="m147.64.56c-7,51.17-7.47,97.19-4.9,135.23,2.26,33.59,7.26,54.82,10.25,81.58,1.02,9.23,1.88,18.92,2.46,29.8,3.18,58.5-4.69,102.83-7.35,127.18-4.14,37.89-5.6,79.01-3.71,125.71,6.22,154.06,19.29,296.8,19.65,501.9.07,25.73-.15,55.08-.78,87.93-1.62,84.89-4.65,177.23-15.62,270.66"/>
  <path class="cls-10" d="m163.68.56c-6.86,49.01-8.33,95-6.37,135.14,1.59,32.59,5.93,54.62,8.48,81.7.87,9.37,1.61,19.1,2.13,29.81,2.81,57.45-3.52,101.23-5.46,127.25-2.85,38.29-3.61,79.08-1.31,125.68,7.92,160.33,15.46,292.37,15.23,501.81,0,25.86-.23,55.19-.71,87.92-1.32,88.77-3.06,181.37-11.98,270.7"/>
  <path class="cls-6" d="m179.73.56c-6.71,46.86-9.14,92.8-7.84,135.05.97,31.59,4.61,54.42,6.72,81.81.72,9.51,1.35,19.27,1.8,29.83,2.45,56.4-2.41,99.62-3.58,127.31-1.64,38.69-1.61,79.15,1.08,125.64,9.67,166.6,11.63,287.94,10.81,501.72-.07,26-.3,55.3-.65,87.9-1.01,92.64-1.47,185.51-8.34,270.74"/>
  <path class="cls-12" d="m195.77.56c-6.57,44.7-9.89,90.61-9.3,134.96.4,30.59,3.28,54.22,4.96,81.92.57,9.66,1.08,19.45,1.46,29.84,2.08,55.35-1.33,98.01-1.7,127.37-.49,39.08.4,79.22,3.48,125.6,11.49,172.87,7.81,283.51,6.39,501.63-.14,26.14-.36,55.41-.59,87.89-.68,96.52.12,189.65-4.7,270.79"/>
  <path class="cls-2" d="m211.82.56c-6.42,42.55-10.57,88.41-10.77,134.87-.13,29.58,1.96,54.02,3.19,82.04.42,9.8.81,19.63,1.13,29.86,1.71,54.3-.3,96.4.19,127.43.62,39.48,2.43,79.29,5.88,125.56,13.36,179.13,3.98,279.08,1.97,501.54-.21,26.28-.42,55.52-.53,87.88-.33,100.39,1.7,193.79-1.06,270.83"/>
  <path class="cls-16" d="m227.87.56c-6.28,40.39-11.18,86.22-12.24,134.78-.62,28.58.63,53.82,1.43,82.15.27,9.95.55,19.8.8,29.87,1.34,53.25.69,94.8,2.07,127.49,1.68,39.88,4.48,79.36,8.28,125.52,15.28,185.38.15,274.65-2.45,501.45-.28,26.42-.42,55.63-.47,87.86.23,104.27,3.29,197.92,2.58,270.87"/>
  <path class="cls-1" d="m243.91.56c-6.14,38.24-11.71,84.03-13.7,134.69-1.09,27.59-.69,53.61-.33,82.26.12,10.09.28,19.98.46,29.89.97,52.2,1.65,93.2,3.96,127.55,2.71,40.3,6.53,79.43,10.68,125.49,17.27,191.63-3.67,270.22-6.87,501.36-.35,26.56-.49,55.74-.41,87.85.56,108.15,4.88,202.06,6.22,270.91"/>
  <path class="cls-7" d="m259.96.56c-5.99,36.08-12.14,81.86-15.17,134.6-1.53,26.6-2.02,53.41-2.1,82.38-.03,10.24.02,20.16.13,29.9.61,51.15,2.56,91.62,5.84,127.61,3.71,40.73,8.66,79.49,13.08,125.45,19.59,197.84-7.5,265.79-11.29,501.27-.42,26.7-.56,55.85-.35,87.83.89,112.02,6.47,206.2,9.86,270.96"/>
  <path class="cls-22" d="m276,.56c-8.58,49.79-18.87,125.08-20.5,217-2.21,124.02,12.95,187.23,23,283,23.8,226.93-19.33,272.34-16,589,1.22,115.9,8.06,210.34,13.5,271"/>
</svg>